<svg width="66" height="64" viewBox="0 0 66 64" fill="none" xmlns="http://www.w3.org/2000/svg">
<path d="M0 0H36C52.5685 0 66 13.4315 66 30V34C66 50.5685 52.5685 64 36 64H30C13.4315 64 0 50.5685 0 34V0Z" fill="#EA4335"/>
<path d="M6.376 48C6.50133 48 6.72067 47.7807 7.034 47.342C7.34733 46.9033 7.75467 46.167 8.256 45.133C8.47533 44.663 8.85133 43.864 9.384 42.736C9.91667 41.608 10.5433 40.2763 11.264 38.741C11.9847 37.2057 12.7367 35.6077 13.52 33.947C14.3033 32.255 15.0397 30.6413 15.729 29.106C16.4497 27.5707 17.0763 26.2233 17.609 25.064C18.1417 23.9047 18.5177 23.09 18.737 22.62C19.1757 21.6173 19.4107 20.8967 19.442 20.458C19.4733 20.0193 19.4107 19.8 19.254 19.8H27.479C27.3537 19.8 27.3067 20.0193 27.338 20.458C27.3693 20.8967 27.5887 21.6173 27.996 22.62C28.2153 23.09 28.5757 23.9047 29.077 25.064C29.5783 26.192 30.1737 27.5237 30.863 29.059C31.5837 30.5943 32.32 32.1923 33.072 33.853C33.824 35.4823 34.5603 37.0647 35.281 38.6C36.0017 40.1353 36.6283 41.4827 37.161 42.642C37.6937 43.8013 38.0853 44.6317 38.336 45.133C38.8373 46.167 39.2917 46.9033 39.699 47.342C40.1377 47.7807 40.4667 48 40.686 48H31.991C32.3043 47.9373 32.555 47.6867 32.743 47.248C32.9623 46.8093 32.931 46.1043 32.649 45.133C32.5863 44.8823 32.4767 44.522 32.32 44.052C32.1633 43.582 32.0223 43.2373 31.897 43.018C31.615 42.3913 31.3173 41.9997 31.004 41.843C30.722 41.6863 30.1737 41.608 29.359 41.608H17.327C16.4183 41.608 15.7917 41.6707 15.447 41.796C15.1337 41.9213 14.8673 42.313 14.648 42.971C14.5227 43.347 14.3973 43.723 14.272 44.099C14.1467 44.475 14.0527 44.8197 13.99 45.133C13.708 46.167 13.6297 46.9033 13.755 47.342C13.8803 47.7807 14.0527 48 14.272 48H6.376ZM18.549 37.848H27.996C28.9047 37.848 29.406 37.7697 29.5 37.613C29.594 37.4563 29.547 37.1117 29.359 36.579C28.795 35.2317 28.137 33.759 27.385 32.161C26.6643 30.563 25.9437 28.9963 25.223 27.461C24.5337 25.9257 23.9227 24.6253 23.39 23.56H23.296C22.638 24.9387 21.9643 26.38 21.275 27.884C20.5857 29.3567 19.9277 30.751 19.301 32.067C18.7057 33.3517 18.22 34.4013 17.844 35.216C17.468 36.0307 17.28 36.438 17.28 36.438C17.0607 36.9393 16.9823 37.2997 17.045 37.519C17.139 37.7383 17.6403 37.848 18.549 37.848Z" fill="#FBBC05"/>
<path d="M37.044 31.13C35.5533 31.13 34.4353 30.8093 33.69 30.168C32.9533 29.518 32.585 28.4953 32.585 27.1C32.585 26.294 32.7367 25.592 33.04 24.994C33.3433 24.3873 33.8243 23.915 34.483 23.577C35.1417 23.239 35.9953 23.07 37.044 23.07C37.8673 23.07 38.552 23.1133 39.098 23.2C39.644 23.2867 40.0123 23.3733 40.203 23.46V23.72L40.463 24.89C40.2203 24.7167 39.8 24.5433 39.202 24.37C38.604 24.1967 37.8933 24.11 37.07 24.11C36.2987 24.11 35.692 24.24 35.25 24.5C34.808 24.7513 34.496 25.1023 34.314 25.553C34.132 26.0037 34.041 26.5193 34.041 27.1C34.041 27.6807 34.132 28.1963 34.314 28.647C34.5047 29.089 34.8427 29.44 35.328 29.7C35.822 29.9513 36.5283 30.077 37.447 30.077C38.1923 30.077 38.812 29.9903 39.306 29.817C39.8087 29.635 40.151 29.4617 40.333 29.297V29.687L40.463 30.48C40.3157 30.6187 39.956 30.7617 39.384 30.909C38.8207 31.0563 38.0407 31.13 37.044 31.13ZM44.0693 31.13C43.1246 31.13 42.4616 30.961 42.0803 30.623C41.6989 30.2763 41.5083 29.8127 41.5083 29.232C41.5083 28.6253 41.7379 28.1487 42.1973 27.802C42.6566 27.4553 43.3586 27.282 44.3033 27.282C44.9793 27.282 45.5209 27.3513 45.9283 27.49C46.3356 27.62 46.6086 27.7327 46.7473 27.828C46.7386 27.0567 46.5913 26.5107 46.3053 26.19C46.0279 25.8607 45.5339 25.696 44.8233 25.696C44.3119 25.696 43.8526 25.7567 43.4453 25.878C43.0466 25.9907 42.7259 26.1163 42.4833 26.255C42.2406 26.385 42.0889 26.4803 42.0283 26.541V26.281L41.8983 25.306C41.9763 25.2713 42.1453 25.215 42.4053 25.137C42.6653 25.0503 43.0076 24.9723 43.4323 24.903C43.8569 24.825 44.3553 24.786 44.9273 24.786C46.0193 24.786 46.8166 25.02 47.3193 25.488C47.8219 25.9473 48.0733 26.658 48.0733 27.62V30.22C48.0733 30.4627 48.0993 30.6403 48.1513 30.753C48.2119 30.857 48.2726 30.9393 48.3333 31H46.7473V30.61L46.7733 30.363L46.7473 30.35C46.4613 30.61 46.0886 30.805 45.6293 30.935C45.1699 31.065 44.6499 31.13 44.0693 31.13ZM44.4983 30.207C45.2003 30.207 45.7506 30.1073 46.1493 29.908C46.5479 29.7 46.7473 29.44 46.7473 29.128C46.7473 28.868 46.5739 28.647 46.2273 28.465C45.8893 28.283 45.3606 28.192 44.6413 28.192C43.9739 28.192 43.5016 28.2787 43.2243 28.452C42.9556 28.6253 42.8213 28.8853 42.8213 29.232C42.8213 29.57 42.9513 29.817 43.2113 29.973C43.4799 30.129 43.9089 30.207 44.4983 30.207ZM49.4574 31C49.518 31 49.5744 30.9393 49.6264 30.818C49.687 30.6967 49.7174 30.4973 49.7174 30.22V25.826C49.7174 25.5487 49.687 25.3537 49.6264 25.241C49.5744 25.1197 49.518 25.0547 49.4574 25.046C49.8387 25.046 50.168 25.02 50.4454 24.968C50.7314 24.9073 50.9307 24.8467 51.0434 24.786V25.436L51.0174 25.657L51.0434 25.683C51.2427 25.4317 51.4984 25.2193 51.8104 25.046C52.131 24.8727 52.5254 24.786 52.9934 24.786C53.4007 24.786 53.7517 24.8467 54.0464 24.968C54.3497 25.0807 54.5664 25.1977 54.6964 25.319L54.4364 26.411V26.801C54.3237 26.6623 54.159 26.5193 53.9424 26.372C53.7344 26.216 53.496 26.086 53.2274 25.982C52.9587 25.878 52.6727 25.826 52.3694 25.826C52.0227 25.826 51.715 25.9647 51.4464 26.242C51.1777 26.5193 51.0434 26.9787 51.0434 27.62V30.22C51.0434 30.4973 51.0694 30.6967 51.1214 30.818C51.182 30.9393 51.2427 31 51.3034 31H49.4574ZM58.4206 31.13C57.7359 31.13 57.1726 31.052 56.7306 30.896C56.2886 30.7313 55.9419 30.506 55.6906 30.22C55.4392 29.934 55.2616 29.6003 55.1576 29.219C55.0622 28.8377 55.0146 28.4217 55.0146 27.971C55.0146 26.9917 55.2919 26.216 55.8466 25.644C56.4099 25.072 57.2419 24.786 58.3426 24.786C58.9839 24.786 59.4996 24.8727 59.8896 25.046C60.2882 25.2193 60.5872 25.449 60.7866 25.735C60.9946 26.021 61.1332 26.333 61.2026 26.671C61.2806 27.0003 61.3196 27.3253 61.3196 27.646V28.257C61.3196 28.231 61.1982 28.205 60.9556 28.179C60.7216 28.1443 60.3229 28.127 59.7596 28.127H56.3406C56.3406 28.7683 56.5312 29.2753 56.9126 29.648C57.2939 30.0207 57.8616 30.207 58.6156 30.207C59.2656 30.207 59.7986 30.129 60.2146 29.973C60.6392 29.8083 60.9209 29.648 61.0596 29.492V29.752L61.1896 30.61C60.9989 30.7227 60.6609 30.8397 60.1756 30.961C59.6989 31.0737 59.1139 31.13 58.4206 31.13ZM56.8606 27.269H60.0196C60.0196 27.0437 59.9719 26.8097 59.8766 26.567C59.7812 26.3243 59.6122 26.1207 59.3696 25.956C59.1269 25.7827 58.7846 25.696 58.3426 25.696C57.7792 25.696 57.3286 25.8303 56.9906 26.099C56.6612 26.3677 56.4966 26.671 56.4966 27.009C56.4966 27.0957 56.5226 27.1607 56.5746 27.204C56.6266 27.2473 56.7219 27.269 56.8606 27.269Z" fill="white"/>
<path d="M43.65 48C43.7107 48 43.767 47.9393 43.819 47.818C43.8797 47.6967 43.91 47.4973 43.91 47.22V39.81C43.91 39.5327 43.8797 39.3377 43.819 39.225C43.767 39.1037 43.7107 39.0387 43.65 39.03C44.0313 39.03 44.3607 39.004 44.638 38.952C44.924 38.8913 45.1233 38.8307 45.236 38.77V47.22C45.236 47.4973 45.262 47.6967 45.314 47.818C45.3747 47.9393 45.4353 48 45.496 48H43.65ZM49.9574 48.13C49.0908 48.13 48.4104 47.9913 47.9164 47.714C47.4311 47.4367 47.0888 47.0597 46.8894 46.583C46.6988 46.1063 46.6034 45.569 46.6034 44.971C46.6034 44.3643 46.7031 43.8227 46.9024 43.346C47.1104 42.8693 47.4571 42.4923 47.9424 42.215C48.4278 41.929 49.0994 41.786 49.9574 41.786C50.8154 41.786 51.4871 41.929 51.9724 42.215C52.4578 42.4923 52.8001 42.8693 52.9994 43.346C53.2074 43.8227 53.3114 44.3643 53.3114 44.971C53.3114 45.569 53.2118 46.1063 53.0124 46.583C52.8218 47.0597 52.4838 47.4367 51.9984 47.714C51.5131 47.9913 50.8328 48.13 49.9574 48.13ZM49.9574 47.207C50.4948 47.207 50.9108 47.1203 51.2054 46.947C51.5001 46.7737 51.7038 46.5223 51.8164 46.193C51.9291 45.855 51.9854 45.4477 51.9854 44.971C51.9854 44.4943 51.9248 44.087 51.8034 43.749C51.6908 43.411 51.4871 43.151 51.1924 42.969C50.9064 42.787 50.4948 42.696 49.9574 42.696C49.4288 42.696 49.0171 42.7913 48.7224 42.982C48.4278 43.164 48.2198 43.4283 48.0984 43.775C47.9858 44.113 47.9294 44.516 47.9294 44.984C47.9294 45.4433 47.9858 45.842 48.0984 46.18C48.2111 46.5093 48.4148 46.765 48.7094 46.947C49.0041 47.1203 49.4201 47.207 49.9574 47.207Z" fill="#FBBC05"/>
</svg>
